<svg width="64" height="64" viewBox="0 0 64 64" fill="none" xmlns="http://www.w3.org/2000/svg">
<g clip-path="url(#clip0_14_11)">
<rect width="64" height="64" fill="white"/>
<circle cx="32" cy="32" r="31" fill="#F7D652" stroke="black" stroke-width="2"/>
<path d="M39.649 53.5571L39.6311 49.526L43.8406 45.0171C45.8655 42.9243 46.9073 40.1289 46.8198 37.1772L46.5339 28.682C46.4999 26.6232 44.8803 25.0179 42.7714 24.9653C42.6348 24.9287 42.4616 25.0287 42.325 24.9921L42.1721 15.7273C42.1382 13.6684 40.4185 11.89 38.3597 11.9239C37.7767 11.9141 37.2071 12.1275 36.6375 12.3409C36.0607 10.9419 34.7044 9.99286 33.092 10C31.4796 10.0072 30.1073 11.0304 29.6047 12.3598C29.0949 12.0768 28.5485 11.9304 27.8789 11.9706C25.82 12.0046 24.0416 13.7242 24.0755 15.7831L24.0827 17.3955C23.6229 17.1991 23.1265 17.1393 22.6801 17.1661C20.6212 17.2 18.8428 18.9197 18.8768 20.9785L18.9153 26.8452C18.9091 28.2345 18.8662 29.7603 18.527 31.5727L18.5404 31.7959C17.9753 35.8172 16.5462 46.3418 22.9737 49.6746L22.9916 53.7057C23.0318 54.3753 23.555 54.8815 24.2246 54.8413C24.8943 54.8011 25.4005 54.2779 25.3603 53.6083L25.3021 48.9076C25.2753 48.4612 25.0254 48.0282 24.5655 47.8318C19.0112 45.6114 20.394 35.8064 20.8859 32.0584L20.8725 31.8352C21.1617 29.9361 21.2411 28.2737 21.1973 26.7979L21.1588 20.9311C21.1552 20.1249 21.748 19.5517 22.5543 19.5481C23.3605 19.5445 23.9837 20.2239 23.9373 20.9436L24.05 29.5388C24.0902 30.2084 24.6134 30.7146 25.283 30.6744C25.9526 30.6342 26.4588 30.111 26.4186 29.4414L26.5442 15.8589C26.5406 15.0527 27.22 14.4295 27.9396 14.4759C28.7459 14.4723 29.3191 15.0651 29.3227 15.8713L29.4497 27.6914C29.4899 28.361 30.0131 28.8672 30.5961 28.877C31.2657 28.8368 31.7719 28.3136 31.7318 27.644L31.6207 13.8517C31.6171 13.0455 32.2966 12.4223 33.0162 12.4687C33.8224 12.4651 34.4456 13.1445 34.3992 13.8641L34.4932 26.627C34.5334 27.2966 35.0566 27.8029 35.7262 27.7627C36.3959 27.7225 36.9021 27.1993 36.8619 26.5296L36.7518 15.739C36.7482 14.9328 37.4277 14.3096 38.1473 14.356C38.9535 14.3524 39.5267 14.9452 39.5303 15.7514L39.6135 26.0957C38.8975 26.8555 38.4181 27.8251 38.4351 28.8545L38.436 31.8562C30.1114 34.2375 30.9866 41.3533 31.0366 41.4399C31.1634 42.0595 31.6366 42.4791 32.2196 42.4889C32.2196 42.4889 32.3062 42.4389 32.3562 42.5255C32.9758 42.3987 33.432 41.7889 33.3052 41.1693C33.2918 40.9461 32.7007 36.3222 38.2736 34.3748C38.2504 34.7346 38.1906 35.2311 38.0808 35.6409L37.9478 36.4105C37.8514 37.0435 38.2014 37.6497 38.8844 37.8327C39.5174 37.9291 40.1236 37.5791 40.3066 36.8961L40.4396 36.1265C41.0923 35.0569 41.2619 34.1507 41.1583 33.1713L41.1635 28.7804C41.1368 28.3339 41.2966 28.0107 41.593 27.7241C41.8894 27.4375 42.2858 27.3241 42.6456 27.3473C43.4518 27.3437 44.075 28.0232 44.0286 28.7428L44.3145 37.238C44.3619 39.52 43.553 41.7191 41.9978 43.4253L37.4052 48.2707C37.1954 48.5073 37.1222 48.7806 37.099 49.1404L37.1437 53.6178C37.1839 54.2875 37.7071 54.7937 38.3768 54.7535C39.0964 54.7999 39.6892 54.2267 39.649 53.5571Z" fill="black"/>
</g>
<defs>
<clipPath id="clip0_14_11">
<rect width="64" height="64" fill="white"/>
</clipPath>
</defs>
</svg>
