<svg width="64" height="64" viewBox="0 0 64 64" fill="none" xmlns="http://www.w3.org/2000/svg">
<g clip-path="url(#clip0_14_11)">
<rect width="64" height="64" fill="white"/>
<circle cx="32" cy="32" r="31" fill="#70D2DA" stroke="black" stroke-width="2"/>
<path d="M31.387 8.67617C30.5906 9.25559 29.954 10.1582 29.8504 11.1376L28.2083 20.5819L26.8782 12.8857C26.5523 10.8501 24.4873 9.42687 22.4516 9.75271C20.366 10.1651 18.9928 12.1436 19.3186 14.1792L21.6762 27.8957C20.1102 28.6082 18.987 30.1536 18.7432 31.9758L18.0753 37.1328C17.7279 39.9344 18.5966 42.6299 20.3982 44.7093L24.9274 49.8646L24.946 54.0322C24.9058 54.7019 25.4987 55.2751 26.1317 55.1787C26.7647 55.0823 27.3745 54.626 27.2781 53.993L27.2862 49.3789C27.3496 49.0691 27.1398 48.8325 26.93 48.5959L22.1044 43.154C20.7224 41.5478 20.0367 39.5354 20.3439 37.4033L21.0119 32.2464C21.1923 30.734 22.4619 29.7349 23.9011 29.6421C23.9011 29.6421 23.9011 29.6421 23.9877 29.6921L30.1642 29.7941C30.9705 29.7976 31.5133 30.4574 31.5597 31.1771C31.6695 31.5869 31.4695 31.9333 31.1829 32.2297C30.8963 32.5261 30.4865 32.6359 30.1767 32.5725L25.8858 32.4046C25.3028 32.4144 24.743 32.784 24.6162 33.4036L24.2322 36.0687C24.1054 36.6883 24.5616 37.2981 25.1812 37.4249C25.8008 37.5517 26.4107 37.0955 26.5374 36.4758L26.7544 35.1C30.9382 37.0536 30.647 41.1579 30.6336 41.3811C30.5934 42.0507 31.0496 42.6605 31.7192 42.7007C31.7192 42.7007 31.8058 42.7507 31.8558 42.6641C32.4389 42.6543 33.0487 42.1981 33.0389 41.6151C33.1826 39.966 32.7238 37.1608 30.6623 34.9314C31.4319 34.7983 32.2149 34.4421 32.7881 33.8493C33.0748 33.5529 33.3614 33.2565 33.5248 32.7735C33.9578 33.0235 34.4774 33.3235 35.0104 33.4003C35.2336 33.4137 35.4568 33.4271 35.68 33.4405C36.6228 33.4074 37.5424 33.0146 38.2023 32.4718C38.8317 33.1816 39.5245 33.5816 40.3673 33.7218C40.5905 33.7352 40.8137 33.7486 41.0369 33.762C41.6199 33.7522 42.1664 33.6058 42.6262 33.4094C43.1082 36.5744 43.1439 39.7127 43.1831 42.0448C43.1857 44.2402 42.0357 46.2321 40.1697 47.4641L39.0501 48.2033C38.6769 48.4497 38.4769 48.7962 38.4501 49.2426L38.3919 53.9433C38.3517 54.6129 38.9446 55.1861 39.5776 55.0897C40.2472 55.1299 40.8204 54.5371 40.724 53.904L40.7053 49.7364L41.2651 49.3667C43.8276 47.7285 45.4276 44.9572 45.4285 41.9555C45.4661 39.0905 45.3108 34.9594 44.5592 31.0613C44.6592 30.8881 44.6226 30.7515 44.7226 30.5783L45.4101 26.5874C45.8039 24.5053 44.3987 22.5393 42.3166 22.1455C41.4738 22.0053 40.7042 22.1383 40.0078 22.5446C39.9712 22.408 39.848 22.2214 39.8114 22.0848C39.2319 21.2883 38.3293 20.6517 37.3499 20.5482C36.8169 20.4714 36.3705 20.4446 35.9606 20.5544L37.3858 12.486C37.626 11.4699 37.3698 10.5137 36.7537 9.58072C36.1743 8.78431 35.2717 8.14771 34.2923 8.04412C33.2262 7.89053 32.27 8.14674 31.387 8.67617ZM24.0851 27.3235C24.0851 27.3235 23.9985 27.2735 23.9485 27.3601L21.5775 13.8668C21.4444 13.0972 21.981 12.3678 22.7507 12.2348C22.8873 12.1982 22.8873 12.1982 22.9739 12.2482C23.6435 12.2883 24.2863 12.7749 24.3827 13.408L26.8135 27.3976L24.0851 27.3235ZM36.547 30.9388C36.2238 31.0986 35.9006 31.2584 35.5042 31.145C34.748 31.0548 34.1685 30.2584 34.3453 29.5522L35.2999 24.0989C35.4133 23.7025 35.5633 23.4426 35.8499 23.1462C36.0865 22.9364 36.3597 22.8632 36.6695 22.9266C36.7561 22.9766 36.8061 22.89 36.8927 22.94C37.2891 23.0534 37.5489 23.2034 37.7953 23.5766C37.9551 23.8998 38.1149 24.223 38.0015 24.6194L37.047 30.0728C37.0702 30.4326 36.8702 30.779 36.547 30.9388ZM42.8987 25.1374C43.0585 25.4606 43.2183 25.7838 43.1049 26.1802L42.4173 30.1711C42.3039 30.5675 42.1539 30.8273 41.8673 31.1237C41.5807 31.4201 41.2209 31.4433 40.8245 31.3299C40.4281 31.2166 40.1683 31.0665 39.8719 30.7799C39.7121 30.4567 39.6023 30.0469 39.6656 29.7371L40.3532 25.7462C40.4434 24.99 41.2398 24.4106 41.946 24.5874C42.3924 24.6142 42.6523 24.7642 42.8987 25.1374ZM34.7377 11.0726C34.8975 11.3958 35.0573 11.719 34.9439 12.1154L32.1071 28.029C31.5874 27.729 30.9312 27.4656 30.2616 27.4254L29.3688 27.3718L32.1557 11.5448C32.2691 11.1484 32.4191 10.8886 32.7057 10.5922C33.0289 10.4324 33.3521 10.2726 33.7485 10.386C34.2315 10.5494 34.4913 10.6994 34.7377 11.0726Z" fill="black"/>
</g>
<defs>
<clipPath id="clip0_14_11">
<rect width="64" height="64" fill="white"/>
</clipPath>
</defs>
</svg>
