<svg width="64" height="64" viewBox="0 0 64 64" fill="none" xmlns="http://www.w3.org/2000/svg">
<g clip-path="url(#clip0_14_11)">
<rect width="64" height="64" fill="white"/>
<circle cx="32" cy="32" r="31" fill="#E8517D" stroke="black" stroke-width="2"/>
<path d="M27.0554 14.7127C26.092 14.0704 24.8075 13.7493 23.523 14.1775C21.8103 14.7127 20.6328 16.4253 20.6328 18.2451L20.6328 21.9915C19.1342 22.8479 18.0638 24.3465 17.8497 26.1662L17.1004 31.6254C16.6723 34.5155 17.6356 37.5127 19.5624 39.7606L24.3793 45.3268L24.3793 49.7155C24.3793 50.4648 24.9145 51 25.6638 51C26.4131 51 26.9483 50.4648 26.9483 49.7155L26.9483 44.7915C26.9483 44.4704 26.8413 44.1493 26.6272 43.9352L21.4892 38.0479C19.9906 36.3352 19.3483 34.1944 19.6694 31.9465L20.4187 26.4873C20.6328 24.8817 22.0244 23.7042 23.63 23.8113L30.2666 23.9183C31.123 23.9183 31.7652 24.5606 31.7652 25.4169C31.7652 25.8451 31.5511 26.1662 31.337 26.4873C31.0159 26.8084 30.6948 26.9155 30.2666 26.9155L25.7709 26.7014C25.1286 26.7014 24.5934 27.1296 24.4863 27.7718L24.0582 30.662C23.9511 31.4113 24.4863 32.0535 25.1286 32.1606C25.7708 32.2676 26.5201 31.7324 26.6272 31.0901L26.8413 29.5915C31.337 31.7324 31.0159 36.1211 31.0159 36.3352C30.9089 37.0845 31.4441 37.6197 32.1934 37.7268H32.3004C32.9427 37.7268 33.4779 37.1915 33.5849 36.5493C33.799 34.7296 33.2638 31.7324 31.0159 29.3775C31.8723 29.2704 32.7286 28.9493 33.3708 28.307C33.692 27.9859 33.9061 27.6648 34.1201 27.3437C34.7624 27.7718 35.5117 27.9859 36.368 27.9859C37.6525 27.9859 38.83 27.3437 39.5793 26.3803C40.2216 26.9155 41.0779 27.1296 41.9342 27.1296C42.5765 27.1296 43.1117 27.0225 43.6469 26.7014C44.2892 30.3408 44.3962 34.0873 44.3962 36.7634C44.3962 39.1183 43.1117 41.2592 41.1849 42.5437L40.0075 43.293C39.5793 43.507 39.3652 43.9352 39.3652 44.3634V49.5014C39.3652 50.2507 39.9004 50.7859 40.6497 50.7859C41.399 50.7859 41.9342 50.2507 41.9342 49.5014V45.1127L42.1483 45.0056C44.9314 43.293 46.537 40.2958 46.6441 37.0845C46.6441 33.7662 46.537 28.9493 45.4666 24.5606C45.5737 24.1324 45.6807 23.7042 45.6807 23.2761V19.1014C45.6807 16.8535 43.861 14.8197 41.6131 14.8197C40.6497 14.8197 39.9004 15.1408 39.1511 15.569C38.4018 14.6056 37.2244 13.9634 35.9399 13.9634C35.0835 13.9634 34.2272 14.2845 33.5849 14.7127C32.8356 13.7493 31.6582 13 30.2666 13C28.9821 13.107 27.8047 13.7493 27.0554 14.7127ZM26.3061 21.3493L23.737 21.2423C23.63 21.2423 23.4159 21.2423 23.3089 21.2423V18.031C23.3089 17.1746 23.9511 16.5324 24.8075 16.5324C25.6638 16.5324 26.3061 17.1746 26.3061 18.031V21.3493ZM40.0075 18.8873C40.0075 18.031 40.6497 17.3887 41.5061 17.3887C42.3624 17.3887 43.0047 18.031 43.0047 18.8873V23.2761C43.0047 24.1324 42.3624 24.7746 41.5061 24.7746C40.6497 24.7746 40.0075 24.1324 40.0075 23.2761L40.0075 18.8873ZM34.4413 18.138C34.4413 17.2817 35.0835 16.6394 35.9399 16.6394C36.7962 16.6394 37.4385 17.2817 37.4385 18.138V24.0253C37.4385 24.8817 36.7962 25.5239 35.9399 25.5239C35.0835 25.5239 34.4413 24.8817 34.4413 24.0253V18.138ZM31.8723 17.1746L31.8723 21.7775C31.337 21.5634 30.8018 21.4563 30.2666 21.3493H28.8751V17.1746C28.8751 16.3183 29.5173 15.6761 30.3737 15.6761C31.23 15.6761 31.8723 16.3183 31.8723 17.1746Z" fill="black"/>
</g>
<defs>
<clipPath id="clip0_14_11">
<rect width="64" height="64" fill="white"/>
</clipPath>
</defs>
</svg>
