<svg width="64" height="64" viewBox="0 0 64 64" fill="none" xmlns="http://www.w3.org/2000/svg">
<g clip-path="url(#clip0_14_11)">
<rect width="64" height="64" fill="white"/>
<circle cx="32" cy="32" r="31" fill="white" stroke="black" stroke-width="2"/>
<path d="M22 35C22.8333 35 23.5417 34.7083 24.125 34.125C24.7083 33.5417 25 32.8333 25 32C25 31.1667 24.7083 30.4583 24.125 29.875C23.5417 29.2917 22.8333 29 22 29C21.1667 29 20.4583 29.2917 19.875 29.875C19.2917 30.4583 19 31.1667 19 32C19 32.8333 19.2917 33.5417 19.875 34.125C20.4583 34.7083 21.1667 35 22 35ZM32 35C32.8333 35 33.5417 34.7083 34.125 34.125C34.7083 33.5417 35 32.8333 35 32C35 31.1667 34.7083 30.4583 34.125 29.875C33.5417 29.2917 32.8333 29 32 29C31.1667 29 30.4583 29.2917 29.875 29.875C29.2917 30.4583 29 31.1667 29 32C29 32.8333 29.2917 33.5417 29.875 34.125C30.4583 34.7083 31.1667 35 32 35ZM42 35C42.8333 35 43.5417 34.7083 44.125 34.125C44.7083 33.5417 45 32.8333 45 32C45 31.1667 44.7083 30.4583 44.125 29.875C43.5417 29.2917 42.8333 29 42 29C41.1667 29 40.4583 29.2917 39.875 29.875C39.2917 30.4583 39 31.1667 39 32C39 32.8333 39.2917 33.5417 39.875 34.125C40.4583 34.7083 41.1667 35 42 35Z" fill="black"/>
</g>
<defs>
<clipPath id="clip0_14_11">
<rect width="64" height="64" fill="white"/>
</clipPath>
</defs>
</svg>
